<svg xmlns="http://www.w3.org/2000/svg" viewBox="0 0 33.0 32.0"><path d="M16.5,16m-16,0a16,16 0,1 1,32 0a16,16 0,1 1,-32 0" fill="#000000" stroke="none" stroke-width="0"/><path d="M9.266,23H17.613" fill="#00000000" stroke="#ffffff" stroke-width="1.5"/><path d="M16.5,23V20.217H10.379V23" fill="#00000000" stroke="#ffffff" stroke-width="1.5"/><path d="M17.376,9.325L13.386,13.315C12.951,13.75 12.951,14.454 13.386,14.889L15.149,16.651C15.583,17.086 16.288,17.086 16.722,16.651L20.712,12.662C21.147,12.227 21.147,11.523 20.712,11.088L18.949,9.325C18.515,8.891 17.81,8.891 17.376,9.325Z" fill="#00000000" stroke="#ffffff" stroke-width="1.5"/><path d="M18.726,14.654L23.733,19.661" fill="#00000000" stroke="#ffffff" stroke-width="1.5"/></svg>