<svg xmlns="http://www.w3.org/2000/svg" viewBox="0 0 32.0 32.0"><path d="M16,16m-16,0a16,16 0,1 1,32 0a16,16 0,1 1,-32 0" fill="#000000" stroke="none" stroke-width="0"/><path d="M18.167,20L20.167,22M20.167,22L22.167,20M20.167,22V18" fill="#00000000" stroke="#ffffff" stroke-width="1.5"/><path d="M22.167,14.667H8.833M22.167,16V13.467C22.167,12.72 22.167,12.347 22.021,12.061C21.894,11.81 21.69,11.606 21.439,11.479C21.154,11.333 20.78,11.333 20.034,11.333H10.967C10.22,11.333 9.847,11.333 9.562,11.479C9.311,11.606 9.107,11.81 8.979,12.061C8.833,12.347 8.833,12.72 8.833,13.467V18.533C8.833,19.28 8.833,19.653 8.979,19.939C9.107,20.19 9.311,20.393 9.562,20.521C9.847,20.667 10.22,20.667 10.967,20.667H15.5" fill="#00000000" stroke="#ffffff" stroke-width="1.5"/></svg>