<svg xmlns="http://www.w3.org/2000/svg" viewBox="0 0 33.0 32.0"><path d="M16.5,16m-16,0a16,16 0,1 1,32 0a16,16 0,1 1,-32 0" fill="#000000" stroke="none" stroke-width="0"/><path d="M13.529,13.736V16.377" fill="#00000000" stroke="#ffffff" stroke-width="1.5"/><path d="M14.849,15.057H12.208" fill="#00000000" stroke="#ffffff" stroke-width="1.5"/><path d="M9.936,13.956L9.465,18.196C9.293,19.742 10.503,21.093 12.058,21.093C13.046,21.093 13.95,20.535 14.392,19.651L14.802,18.83H18.198L18.609,19.651C19.051,20.535 19.954,21.093 20.942,21.093C22.497,21.093 23.707,19.742 23.535,18.196L23.064,13.956C22.871,12.22 21.404,10.906 19.657,10.906H13.344C11.597,10.906 10.129,12.22 9.936,13.956Z" fill="#00000000" stroke="#ffffff" stroke-width="1.5"/><path d="M20.462,14.302C20.305,14.302 20.179,14.176 20.179,14.019C20.179,13.863 20.305,13.736 20.462,13.736" fill="#00000000" stroke="#ffffff" stroke-width="1.5"/><path d="M20.461,14.302C20.618,14.302 20.744,14.176 20.744,14.019C20.744,13.863 20.618,13.736 20.461,13.736" fill="#00000000" stroke="#ffffff" stroke-width="1.5"/><path d="M18.481,15.717C18.481,15.561 18.608,15.434 18.764,15.434C18.92,15.434 19.047,15.561 19.047,15.717" fill="#00000000" stroke="#ffffff" stroke-width="1.5"/><path d="M18.481,15.717C18.481,15.873 18.608,16 18.764,16C18.92,16 19.047,15.873 19.047,15.717" fill="#00000000" stroke="#ffffff" stroke-width="1.5"/></svg>