<svg xmlns="http://www.w3.org/2000/svg" viewBox="0 0 32.0 32.0"><path d="M16,16m-16,0a16,16 0,1 1,32 0a16,16 0,1 1,-32 0" fill="#000000" stroke="none" stroke-width="0"/><path d="M12,21.392H13.74C13.967,21.392 14.193,21.419 14.413,21.472L16.251,21.919C16.65,22.017 17.066,22.026 17.469,21.948L19.502,21.552C20.039,21.448 20.533,21.19 20.92,20.814L22.359,19.415C22.77,19.016 22.77,18.368 22.359,17.969C21.989,17.609 21.403,17.569 20.985,17.874L19.309,19.097C19.069,19.272 18.776,19.367 18.476,19.367H16.857L17.888,19.367C18.468,19.367 18.939,18.909 18.939,18.344V18.139C18.939,17.67 18.611,17.261 18.143,17.148L16.553,16.761C16.294,16.698 16.029,16.667 15.762,16.667C15.119,16.667 13.955,17.199 13.955,17.199L12,18.017M9.333,17.733L9.333,21.6C9.333,21.973 9.333,22.16 9.406,22.303C9.47,22.428 9.572,22.53 9.698,22.594C9.84,22.667 10.027,22.667 10.4,22.667H10.934C11.307,22.667 11.493,22.667 11.636,22.594C11.762,22.53 11.864,22.428 11.927,22.303C12,22.16 12,21.973 12,21.6V17.733C12,17.36 12,17.173 11.927,17.031C11.864,16.905 11.762,16.803 11.636,16.739C11.493,16.667 11.307,16.667 10.934,16.667L10.4,16.667C10.027,16.667 9.84,16.667 9.698,16.739C9.572,16.803 9.47,16.905 9.406,17.031C9.333,17.173 9.333,17.36 9.333,17.733Z" fill="#00000000" stroke="#ffffff" stroke-width="1.4"/><path d="M21.667,15.333C21.667,15.702 21.965,16 22.333,16C22.701,16 23,15.702 23,15.333V13.017C23,12.795 22.95,12.589 22.85,12.4C22.75,12.211 22.611,12.056 22.433,11.933L19.1,9.55C18.867,9.383 18.611,9.3 18.333,9.3C18.055,9.3 17.8,9.383 17.566,9.55L14.233,11.933C14.055,12.056 13.917,12.211 13.816,12.4C13.717,12.589 13.667,12.795 13.667,13.017V14.333C13.667,14.702 13.965,15 14.333,15C14.701,15 15,14.702 15,14.333V13L18.333,10.667L21.667,13V15.333Z" fill="#ffffff" stroke="none" stroke-width="0"/></svg>