<svg xmlns="http://www.w3.org/2000/svg" viewBox="0 0 33.0 32.0"><path d="M16.5,16m-16,0a16,16 0,1 1,32 0a16,16 0,1 1,-32 0" fill="#000000" stroke="none" stroke-width="0"/><path d="M7.609,11.546C7.5,11.76 7.5,12.04 7.5,12.6V19.4C7.5,19.96 7.5,20.24 7.609,20.454C7.705,20.642 7.858,20.795 8.046,20.891C8.26,21 8.54,21 9.1,21H10.436V11H9.1C8.54,11 8.26,11 8.046,11.109C7.858,11.205 7.705,11.358 7.609,11.546ZM12.274,11H11.296V21H12.274V11ZM13.134,11H16.07V21H13.134V11ZM19.865,11H16.929V21H19.865V11ZM20.725,11H21.704V21H20.725V11ZM23.9,11H22.564V21H23.9C24.46,21 24.74,21 24.954,20.891C25.142,20.795 25.295,20.642 25.391,20.454C25.5,20.24 25.5,19.96 25.5,19.4V12.6C25.5,12.04 25.5,11.76 25.391,11.546C25.295,11.358 25.142,11.205 24.954,11.109C24.74,11 24.46,11 23.9,11Z" fill="#ffffff" stroke="none" stroke-width="0"/></svg>