<svg xmlns="http://www.w3.org/2000/svg" viewBox="0 0 24.0 25.0"><path d="M13,14.615L6,14.615A1,1 0,0 1,5 13.615L5,6.615A1,1 0,0 1,6 5.615L13,5.615A1,1 0,0 1,14 6.615L14,13.615A1,1 0,0 1,13 14.615z" fill="#00000000" stroke="#ffffff" stroke-width="2.0"/><path d="M18,18.615L11,18.615L11,16.615L9,16.615L9,18.615C9,19.72 9.895,20.615 11,20.615L18,20.615C19.105,20.615 20,19.72 20,18.615L20,11.615C20,10.511 19.105,9.615 18,9.615L16,9.615L16,11.615L18,11.615L18,18.615Z" fill="#ffffff" stroke="none" stroke-width="0"/></svg>