<svg xmlns="http://www.w3.org/2000/svg" viewBox="0 0 32.0 32.0"><path d="M16,16m-16,0a16,16 0,1 1,32 0a16,16 0,1 1,-32 0" fill="#000000" stroke="none" stroke-width="0"/><path d="M22.695,16.918C22.511,16.777 22.3,16.674 22.075,16.616C21.85,16.558 21.616,16.547 21.387,16.583C22.707,15.25 23.375,13.924 23.375,12.625C23.375,10.764 21.878,9.25 20.038,9.25C19.55,9.247 19.067,9.351 18.623,9.554C18.179,9.758 17.785,10.056 17.469,10.428C17.152,10.056 16.758,9.758 16.315,9.554C15.871,9.351 15.388,9.247 14.899,9.25C13.059,9.25 11.563,10.764 11.563,12.625C11.563,13.398 11.79,14.15 12.27,14.945C11.877,15.045 11.519,15.249 11.233,15.536L9.642,17.125H7.625C7.327,17.125 7.04,17.243 6.83,17.454C6.619,17.665 6.5,17.952 6.5,18.25V21.062C6.5,21.361 6.619,21.647 6.83,21.858C7.04,22.069 7.327,22.187 7.625,22.187H14.938C14.983,22.188 15.029,22.182 15.074,22.171L19.574,21.046C19.603,21.039 19.631,21.029 19.658,21.017L22.391,19.854L22.422,19.84C22.684,19.709 22.909,19.513 23.075,19.271C23.241,19.029 23.343,18.748 23.37,18.456C23.398,18.164 23.351,17.869 23.233,17.6C23.115,17.331 22.931,17.096 22.698,16.918H22.695ZM14.899,10.375C15.335,10.369 15.763,10.492 16.128,10.73C16.493,10.968 16.778,11.31 16.948,11.711C16.991,11.814 17.063,11.902 17.156,11.964C17.248,12.026 17.357,12.06 17.469,12.06C17.58,12.06 17.689,12.026 17.782,11.964C17.875,11.902 17.947,11.814 17.989,11.711C18.159,11.31 18.445,10.968 18.81,10.73C19.175,10.492 19.602,10.369 20.038,10.375C21.237,10.375 22.25,11.405 22.25,12.625C22.25,13.997 21.14,15.549 19.039,17.118L18.26,17.297C18.328,17.008 18.33,16.707 18.266,16.417C18.202,16.127 18.072,15.855 17.888,15.622C17.704,15.389 17.469,15.201 17.202,15.072C16.934,14.942 16.641,14.875 16.344,14.875H13.579C12.972,14.057 12.688,13.337 12.688,12.625C12.688,11.405 13.701,10.375 14.899,10.375ZM7.625,18.25H9.313V21.062H7.625V18.25ZM21.929,18.827L19.257,19.965L14.867,21.062H10.438V17.92L12.029,16.33C12.133,16.225 12.257,16.142 12.393,16.085C12.53,16.028 12.676,16 12.824,16H16.344C16.567,16 16.782,16.089 16.94,16.247C17.099,16.405 17.188,16.62 17.188,16.844C17.188,17.067 17.099,17.282 16.94,17.44C16.782,17.598 16.567,17.687 16.344,17.687H14.375C14.226,17.687 14.083,17.747 13.977,17.852C13.872,17.958 13.813,18.101 13.813,18.25C13.813,18.399 13.872,18.542 13.977,18.648C14.083,18.753 14.226,18.812 14.375,18.812H16.625C16.667,18.812 16.709,18.808 16.751,18.798L21.462,17.715L21.484,17.709C21.627,17.669 21.781,17.684 21.914,17.75C22.048,17.817 22.153,17.93 22.208,18.069C22.263,18.208 22.264,18.362 22.212,18.502C22.16,18.642 22.059,18.758 21.927,18.827H21.929Z" fill="#ffffff" stroke="none" stroke-width="0"/></svg>