<svg xmlns="http://www.w3.org/2000/svg" viewBox="0 0 33.0 32.0"><path d="M16.5,16m-16,0a16,16 0,1 1,32 0a16,16 0,1 1,-32 0" fill="#000000" stroke="none" stroke-width="0"/><path d="M16.456,24.023L16.5,24.107L16.544,24.023C16.653,23.817 16.817,23.661 17.011,23.529C17.866,22.962 18.438,22.049 18.646,21.028H21.25H21.3V20.978V10.133V10.054L21.229,10.088C19.789,10.771 18.841,12.271 18.64,13.823L18.242,16.871L18.234,16.936L18.299,16.927L18.494,16.901C18.692,16.902 18.877,16.99 19.014,17.123C19.153,17.257 19.237,17.433 19.237,17.606C19.237,17.928 18.975,18.209 18.622,18.286L18.622,18.286L18.175,18.385C17.393,16.972 16.948,15.588 16.948,14.234C16.948,13.619 16.997,13.003 17.047,12.382L17.048,12.373C17.097,11.749 17.147,11.12 17.147,10.484C17.147,9.903 16.914,9.379 16.537,8.966L16.5,8.926L16.463,8.966C16.086,9.379 15.853,9.903 15.853,10.484L15.853,10.485C15.866,11.067 15.909,11.644 15.951,12.215C15.955,12.268 15.959,12.32 15.963,12.373C16.009,12.997 16.052,13.615 16.052,14.234C16.052,15.588 15.607,16.972 14.825,18.385L14.378,18.286L14.377,18.286C14.025,18.209 13.763,17.928 13.763,17.606C13.763,17.433 13.847,17.257 13.986,17.123C14.123,16.99 14.308,16.902 14.506,16.901L14.701,16.927L14.766,16.936L14.758,16.871L14.36,13.824C14.244,12.269 13.209,10.77 11.771,10.088L11.7,10.054V10.133V20.978V21.028H11.75H14.354C14.564,22.05 15.163,22.935 15.987,23.528L15.987,23.528L15.988,23.529C16.183,23.661 16.347,23.817 16.456,24.023ZM19.536,13.754L19.536,13.754L19.536,13.754C19.615,13.029 19.943,12.373 20.404,11.831V17.178H20.036C19.913,16.784 19.609,16.445 19.228,16.23L19.536,13.754ZM14.096,19.111L14.096,19.111L14.1,19.112L14.42,19.182C14.344,19.503 14.293,19.827 14.289,20.173H12.596V18.034H12.964C13.121,18.547 13.554,18.948 14.096,19.111ZM18.9,19.112L18.9,19.112L18.904,19.111C19.446,18.948 19.879,18.547 20.036,18.034H20.404V20.173H18.711C18.707,19.827 18.656,19.503 18.58,19.182L18.9,19.112ZM13.773,16.23C13.391,16.445 13.087,16.784 12.964,17.178H12.596V11.831C13.053,12.372 13.358,13.028 13.464,13.755L13.773,16.23ZM16.5,16.933C16.694,17.511 16.974,18.067 17.278,18.6C16.97,18.689 16.711,18.882 16.5,19.098C16.289,18.882 16.03,18.689 15.722,18.6C16.026,18.067 16.306,17.511 16.5,16.933ZM15.285,19.361C15.706,19.427 16.025,19.775 16.05,20.173H15.157C15.162,19.889 15.211,19.625 15.285,19.361ZM17.715,19.361C17.789,19.625 17.838,19.889 17.843,20.173H16.95C16.975,19.775 17.294,19.427 17.715,19.361ZM15.284,21.028H16.052V22.44C15.689,22.025 15.42,21.548 15.284,21.028ZM16.948,21.028H17.716C17.58,21.548 17.311,22.025 16.948,22.44V21.028Z" fill="#ffffff" stroke="#ffffff" stroke-width="0.1"/></svg>