<svg xmlns="http://www.w3.org/2000/svg" viewBox="0 0 32.0 32.0"><path d="M16,16m-16,0a16,16 0,1 1,32 0a16,16 0,1 1,-32 0" fill="#000000" stroke="none" stroke-width="0"/><path d="M15.264,11.998V18.972C14.066,18.352 12.928,18.01 11.681,17.869V10.48C13.426,10.564 14.565,11.285 15.264,11.998ZM10.91,9.01C13.283,8.897 14.933,9.72 16,10.667C17.067,9.72 18.718,8.897 21.09,9.01C21.483,9.029 21.792,9.353 21.792,9.746V10.737L23.222,10.655C23.424,10.644 23.622,10.716 23.77,10.855C23.917,10.994 24,11.188 24,11.39V21.427C24,21.678 23.872,21.913 23.66,22.048C23.448,22.183 23.181,22.2 22.953,22.094C21.733,21.525 18.969,20.915 16.372,21.85C16.252,21.893 16.124,21.904 16,21.883C15.86,21.906 15.715,21.889 15.582,21.831C14.525,21.368 13.216,21.274 11.97,21.389C10.725,21.505 9.632,21.821 9.048,22.094C8.82,22.2 8.553,22.183 8.341,22.048C8.128,21.913 8,21.678 8,21.427V11.39C8,11.188 8.083,10.994 8.231,10.855C8.378,10.716 8.576,10.644 8.778,10.655L10.209,10.737V9.746C10.209,9.353 10.517,9.029 10.91,9.01ZM10.209,12.212V18.546C10.209,18.937 10.514,19.26 10.905,19.281C11.927,19.337 12.842,19.523 13.786,19.908C13.119,19.851 12.455,19.866 11.834,19.923C10.969,20.004 10.151,20.171 9.472,20.373V12.17L10.209,12.212ZM16.736,18.972V11.998C17.436,11.285 18.574,10.564 20.319,10.48V17.869C19.073,18.01 17.934,18.352 16.736,18.972ZM21.792,12.212V18.546C21.792,18.937 21.486,19.26 21.096,19.281C20.032,19.339 19.083,19.539 18.098,19.956C19.782,19.773 21.366,20.016 22.528,20.367V12.17L21.792,12.212Z" fill="#ffffff" stroke="none" stroke-width="0"/></svg>