<svg xmlns="http://www.w3.org/2000/svg" viewBox="0 0 32.0 32.0"><path d="M16,16m-16,0a16,16 0,1 1,32 0a16,16 0,1 1,-32 0" fill="#000000" stroke="none" stroke-width="0"/><path d="M25.08,10.72H23.415L22.555,11.415H25.08V12.184H21.805C21.586,12.348 21.458,12.549 21.458,12.806C21.458,13.245 21.805,13.483 22.427,13.483C22.958,13.483 23.415,13.226 23.781,12.696L24.787,13.373C24.238,14.214 23.25,14.635 22.317,14.635C21.092,14.635 20.177,14.05 20.177,13.08C20.177,12.769 20.287,12.44 20.506,12.184H19.5V11.415H21.11L21.988,10.72H19.5V9.952H22.757C22.994,9.732 23.104,9.531 23.104,9.293C23.104,8.909 22.757,8.634 22.226,8.634C21.714,8.634 21.275,8.927 20.964,9.421L19.994,8.762C20.524,7.921 21.384,7.5 22.317,7.5C23.58,7.5 24.403,8.159 24.403,9.055C24.403,9.384 24.293,9.714 24.11,9.952H25.08V10.72Z" fill="#ffffff" stroke="none" stroke-width="0"/><path d="M13,17.25C13,17.94 12.44,18.5 11.75,18.5C11.06,18.5 10.5,17.94 10.5,17.25C10.5,16.56 11.06,16 11.75,16C12.44,16 13,16.56 13,17.25Z" fill="#ffffff" stroke="none" stroke-width="0"/><path d="M20.5,17.25C20.5,17.94 19.94,18.5 19.25,18.5C18.56,18.5 18,17.94 18,17.25C18,16.56 18.56,16 19.25,16C19.94,16 20.5,16.56 20.5,17.25Z" fill="#ffffff" stroke="none" stroke-width="0"/><path d="M9.25,22V21.385V20.5H10.75V21.5V22C10.75,22.138 10.862,22.25 11,22.25H12C12.138,22.25 12.25,22.138 12.25,22V21.5V20.5H13.75V21.5V22C13.75,22.966 12.967,23.75 12,23.75H11C10.033,23.75 9.25,22.966 9.25,22Z" fill="#ffffff" stroke="none" stroke-width="0"/><path d="M11.46,11.095C11.634,10.589 12.109,10.25 12.643,10.25H18C19,10.25 19,8.75 18,8.75H12.643C11.468,8.75 10.423,9.497 10.042,10.608L8.975,13.719C9.288,13.578 9.635,13.5 10,13.5H10.636L11.46,11.095Z" fill="#ffffff" stroke="none" stroke-width="0"/><path d="M8.791,14.257L10.21,14.743L10.636,13.5H10C9.635,13.5 9.288,13.578 8.975,13.719L8.791,14.257Z" fill="#ffffff" stroke="none" stroke-width="0"/><path d="M10.21,14.743L8.791,14.257L8.975,13.719C8.105,14.111 7.5,14.985 7.5,16V19C7.5,20.119 8.236,21.067 9.25,21.385V20.5H10.75V21.5H12.25V20.5H13.75V21.5H17.25V20.5H18.75V21.5H20.25V20.5H21.75V21.385C22.764,21.067 23.5,20.119 23.5,19V16.5C23.5,15.5 22,15.5 22,16.5V19C22,19.552 21.552,20 21,20H10C9.448,20 9,19.552 9,19V16C9,15.448 9.448,15 10,15H18C19.143,15 19.143,13.5 18,13.5H10.636L10.21,14.743Z" fill="#ffffff" stroke="none" stroke-width="0"/><path d="M17.25,21.5V20.5H18.75V21.5H17.25Z" fill="#ffffff" stroke="none" stroke-width="0"/><path d="M18.75,21.5H17.25V22C17.25,22.966 18.034,23.75 19,23.75H20C20.966,23.75 21.75,22.966 21.75,22V21.385C21.513,21.46 21.261,21.5 21,21.5H20.25V22C20.25,22.138 20.138,22.25 20,22.25H19C18.862,22.25 18.75,22.138 18.75,22V21.5Z" fill="#ffffff" stroke="none" stroke-width="0"/><path d="M20.25,21.5H21C21.261,21.5 21.513,21.46 21.75,21.385V20.5H20.25V21.5Z" fill="#ffffff" stroke="none" stroke-width="0"/></svg>