<svg xmlns="http://www.w3.org/2000/svg" viewBox="0 0 33.0 32.0"><path d="M16.5,16m-16,0a16,16 0,1 1,32 0a16,16 0,1 1,-32 0" fill="#000000" stroke="none" stroke-width="0"/><path d="M13.643,9.75C13.109,9.75 12.634,10.089 12.46,10.595L11.21,14.243L9.791,13.757L11.042,10.108C11.423,8.997 12.468,8.25 13.643,8.25H19.357C20.532,8.25 21.577,8.997 21.958,10.108L23.209,13.757L21.791,14.243L20.54,10.595C20.366,10.089 19.891,9.75 19.357,9.75H13.643Z" fill="#ffffff" stroke="none" stroke-width="0"/><path d="M22,14.5H11C10.448,14.5 10,14.948 10,15.5V18.5C10,19.052 10.448,19.5 11,19.5H22C22.552,19.5 23,19.052 23,18.5V15.5C23,14.948 22.552,14.5 22,14.5ZM11,13C9.619,13 8.5,14.119 8.5,15.5V18.5C8.5,19.881 9.619,21 11,21H22C23.381,21 24.5,19.881 24.5,18.5V15.5C24.5,14.119 23.381,13 22,13H11Z" fill="#ffffff" stroke="none" stroke-width="0"/><path d="M14,16.75C14,17.44 13.44,18 12.75,18C12.06,18 11.5,17.44 11.5,16.75C11.5,16.06 12.06,15.5 12.75,15.5C13.44,15.5 14,16.06 14,16.75Z" fill="#ffffff" stroke="none" stroke-width="0"/><path d="M21.5,16.75C21.5,17.44 20.94,18 20.25,18C19.56,18 19,17.44 19,16.75C19,16.06 19.56,15.5 20.25,15.5C20.94,15.5 21.5,16.06 21.5,16.75Z" fill="#ffffff" stroke="none" stroke-width="0"/><path d="M10.25,21.5V20H11.75V21.5C11.75,21.638 11.862,21.75 12,21.75H13C13.138,21.75 13.25,21.638 13.25,21.5V20H14.75V21.5C14.75,22.466 13.967,23.25 13,23.25H12C11.033,23.25 10.25,22.466 10.25,21.5Z" fill="#ffffff" stroke="none" stroke-width="0"/><path d="M18.25,21.5V20H19.75V21.5C19.75,21.638 19.862,21.75 20,21.75H21C21.138,21.75 21.25,21.638 21.25,21.5V20H22.75V21.5C22.75,22.466 21.966,23.25 21,23.25H20C19.034,23.25 18.25,22.466 18.25,21.5Z" fill="#ffffff" stroke="none" stroke-width="0"/></svg>