<svg xmlns="http://www.w3.org/2000/svg" viewBox="0 0 33.0 32.0"><path d="M16.5,16m-16,0a16,16 0,1 1,32 0a16,16 0,1 1,-32 0" fill="#000000" stroke="none" stroke-width="0"/><path d="M16.5,13.333V16M16.5,18.667H16.507M9.833,13.682V18.318C9.833,18.481 9.833,18.563 9.852,18.639C9.868,18.707 9.895,18.772 9.932,18.832C9.973,18.899 10.031,18.957 10.146,19.072L13.428,22.354C13.543,22.469 13.601,22.527 13.668,22.568C13.728,22.605 13.793,22.632 13.861,22.648C13.937,22.667 14.019,22.667 14.182,22.667H18.818C18.981,22.667 19.063,22.667 19.14,22.648C19.208,22.632 19.273,22.605 19.332,22.568C19.4,22.527 19.457,22.469 19.573,22.354L22.854,19.072C22.97,18.957 23.027,18.899 23.069,18.832C23.105,18.772 23.132,18.707 23.148,18.639C23.167,18.563 23.167,18.481 23.167,18.318V13.682C23.167,13.519 23.167,13.437 23.148,13.36C23.132,13.292 23.105,13.227 23.069,13.168C23.027,13.101 22.97,13.043 22.854,12.927L19.573,9.646C19.457,9.53 19.4,9.473 19.332,9.431C19.273,9.395 19.208,9.368 19.14,9.352C19.063,9.333 18.981,9.333 18.818,9.333H14.182C14.019,9.333 13.937,9.333 13.861,9.352C13.793,9.368 13.728,9.395 13.668,9.431C13.601,9.473 13.543,9.53 13.428,9.646L10.146,12.927C10.031,13.043 9.973,13.101 9.932,13.168C9.895,13.227 9.868,13.292 9.852,13.36C9.833,13.437 9.833,13.519 9.833,13.682Z" fill="#00000000" stroke="#ffffff" stroke-width="1.5"/></svg>