<svg xmlns="http://www.w3.org/2000/svg" viewBox="0 0 32.0 32.0"><path d="M16,16m-16,0a16,16 0,1 1,32 0a16,16 0,1 1,-32 0" fill="#000000" stroke="none" stroke-width="0"/><path d="M21.756,10.013C23.016,10.141 24,11.206 24,12.5V19.5L23.987,19.756C23.868,20.932 22.932,21.868 21.756,21.987L21.5,22H10.5L10.244,21.987C9.068,21.868 8.132,20.932 8.013,19.756L8,19.5V12.5C8,11.206 8.984,10.141 10.244,10.013L10.5,10H21.5L21.756,10.013ZM9.5,15.5V19.5C9.5,20.052 9.948,20.5 10.5,20.5H21.5C22.052,20.5 22.5,20.052 22.5,19.5V15.5H9.5ZM10.5,11.5C9.948,11.5 9.5,11.948 9.5,12.5V14H22.5V12.5C22.5,11.948 22.052,11.5 21.5,11.5H10.5Z" fill="#ffffff" stroke="none" stroke-width="0"/></svg>