<svg xmlns="http://www.w3.org/2000/svg" viewBox="0 0 32.0 32.0"><path d="M16,16m-16,0a16,16 0,1 1,32 0a16,16 0,1 1,-32 0" fill="#000000" stroke="none" stroke-width="0"/><path d="M21,8C22.105,8 23,8.895 23,10V22C23,23.105 22.105,24 21,24H11L10.796,23.989C9.787,23.887 9,23.036 9,22V14.063C9,13.479 9.255,12.924 9.698,12.544L14.439,8.481C14.756,8.21 15.149,8.045 15.561,8.008L15.74,8H21ZM15.74,9.5C15.621,9.5 15.505,9.542 15.414,9.62L10.675,13.683C10.564,13.778 10.5,13.917 10.5,14.063V22C10.5,22.276 10.724,22.5 11,22.5H21C21.276,22.5 21.5,22.276 21.5,22V10C21.5,9.724 21.276,9.5 21,9.5H15.74ZM18,14.361C18.966,14.361 19.75,15.145 19.75,16.111V18.556C19.75,19.522 18.966,20.306 18,20.306H14C13.034,20.306 12.25,19.522 12.25,18.556V16.111C12.25,15.145 13.033,14.361 14,14.361H18ZM14,15.861C13.862,15.861 13.75,15.973 13.75,16.111V18.556C13.75,18.694 13.862,18.806 14,18.806H18C18.138,18.806 18.25,18.694 18.25,18.556V16.111C18.25,15.973 18.138,15.861 18,15.861H14Z" fill="#ffffff" stroke="none" stroke-width="0"/></svg>