<svg xmlns="http://www.w3.org/2000/svg" viewBox="0 0 32.0 32.0"><path d="M16,16m-16,0a16,16 0,1 1,32 0a16,16 0,1 1,-32 0" fill="#000000" stroke="none" stroke-width="0"/><path d="M17.988,14.644C17.988,14.972 17.827,15.325 17.62,15.524V15.578H18.217C18.379,15.578 18.5,15.703 18.5,15.882C18.5,16.055 18.379,16.18 18.217,16.18H13.796C13.63,16.18 13.5,16.041 13.5,15.852C13.5,15.663 13.63,15.524 13.796,15.524H16.323C16.646,15.375 16.812,15.151 16.812,14.798C16.812,14.336 16.444,14.019 15.91,14.019C15.511,14.019 15.174,14.222 14.932,14.56C14.797,14.714 14.631,14.813 14.46,14.813C14.178,14.813 13.967,14.595 13.967,14.302C13.967,14.158 14.021,14.019 14.128,13.889C14.451,13.338 15.125,13 15.937,13C17.171,13 17.988,13.651 17.988,14.644ZM13.5,17.084C13.5,16.91 13.621,16.786 13.778,16.786H18.208C18.374,16.786 18.5,16.925 18.5,17.114C18.5,17.297 18.374,17.437 18.208,17.437H15.627C15.268,17.536 15.031,17.824 15.031,18.172C15.031,18.649 15.443,18.982 16.036,18.982C16.534,18.982 16.848,18.773 17.104,18.385C17.257,18.206 17.423,18.112 17.607,18.112C17.89,18.112 18.118,18.361 18.118,18.678C18.118,18.818 18.074,18.952 17.966,19.076C17.625,19.637 16.88,20 16.031,20C14.703,20 13.85,19.349 13.85,18.375C13.85,18.003 14.034,17.63 14.29,17.437V17.377H13.778C13.621,17.377 13.5,17.253 13.5,17.084Z" fill="#ffffff" stroke="none" stroke-width="0"/><path d="M19.2,10.333V9.556C19.2,9.143 19.031,8.747 18.731,8.456C18.431,8.164 18.024,8 17.6,8H14.4C13.976,8 13.569,8.164 13.269,8.456C12.969,8.747 12.8,9.143 12.8,9.556V10.333M9.6,11.111H22.4C23.284,11.111 24,11.808 24,12.667V20.444C24,21.304 23.284,22 22.4,22H9.6C8.716,22 8,21.304 8,20.444V12.667C8,11.808 8.716,11.111 9.6,11.111Z" fill="#00000000" stroke="#ffffff" stroke-width="1.6"/></svg>