<svg xmlns="http://www.w3.org/2000/svg" viewBox="0 0 33.0 32.0"><path d="M16.5,16m-16,0a16,16 0,1 1,32 0a16,16 0,1 1,-32 0" fill="#000000" stroke="none" stroke-width="0"/><path d="M19.5,14.267L13.5,10.807" fill="#00000000" stroke="#ffffff" stroke-width="1.5"/><path d="M22.5,18.667V13.333C22.5,13.099 22.438,12.87 22.321,12.667C22.204,12.465 22.036,12.297 21.833,12.18L17.167,9.513C16.964,9.396 16.734,9.335 16.5,9.335C16.266,9.335 16.036,9.396 15.833,9.513L11.167,12.18C10.964,12.297 10.796,12.465 10.679,12.667C10.562,12.87 10.5,13.099 10.5,13.333V18.667C10.5,18.9 10.562,19.13 10.679,19.333C10.796,19.535 10.964,19.703 11.167,19.82L15.833,22.487C16.036,22.604 16.266,22.665 16.5,22.665C16.734,22.665 16.964,22.604 17.167,22.487L21.833,19.82C22.036,19.703 22.204,19.535 22.321,19.333C22.438,19.13 22.5,18.9 22.5,18.667Z" fill="#00000000" stroke="#ffffff" stroke-width="1.5"/><path d="M10.68,12.64L16.5,16.007L22.32,12.64" fill="#00000000" stroke="#ffffff" stroke-width="1.5"/><path d="M16.5,22.72V16" fill="#00000000" stroke="#ffffff" stroke-width="1.5"/></svg>