<svg xmlns="http://www.w3.org/2000/svg" viewBox="0 0 32.0 32.0"><path d="M16,16m-16,0a16,16 0,1 1,32 0a16,16 0,1 1,-32 0" fill="#000000" stroke="none" stroke-width="0"/><path d="M13,21H19" fill="#00000000" stroke="#ffffff" stroke-width="1.5"/><path d="M14,23H18" fill="#00000000" stroke="#ffffff" stroke-width="1.5"/><path d="M13.5,21C13.5,19.333 13.084,16.917 12.25,16.083C11.417,15.25 11.02,14.406 11.001,13.167C10.961,10.625 12.667,9 16,9C19.333,9 21.039,10.625 20.999,13.167C20.98,14.406 20.583,15.25 19.75,16.083C18.916,16.917 18.5,19.333 18.5,21" fill="#00000000" stroke="#ffffff" stroke-width="1.5"/></svg>