<svg xmlns="http://www.w3.org/2000/svg" viewBox="0 0 32.0 32.0"><path d="M16,16m-16,0a16,16 0,1 1,32 0a16,16 0,1 1,-32 0" fill="#000000" stroke="none" stroke-width="0"/><path d="M16,22C18.761,22 21,19.761 21,17C21,14.239 18.761,12 16,12C13.239,12 11,14.239 11,17C11,19.761 13.239,22 16,22Z" fill="#00000000" stroke="#ffffff" stroke-width="1.5"/><path d="M14.793,8.586L17.207,8.586C17.34,8.586 17.467,8.639 17.561,8.733L18.475,9.647C18.67,9.842 18.67,10.159 18.475,10.354L16.354,12.475C16.158,12.67 15.842,12.67 15.646,12.475L13.525,10.354C13.33,10.159 13.33,9.842 13.525,9.647L14.439,8.733C14.533,8.639 14.66,8.586 14.793,8.586Z" fill="#ffffff" stroke="none" stroke-width="0"/></svg>