<svg xmlns="http://www.w3.org/2000/svg" viewBox="0 0 66.0 28.0"><path d="M12,0L12,0A12,12 0,0 1,24 12L24,12A12,12 0,0 1,12 24L12,24A12,12 0,0 1,0 12L0,12A12,12 0,0 1,12 0z" fill="#ffd600" stroke="none" stroke-width="0"></path><path d="M16.325,10.489C16.263,10.391 16.156,10.333 16.039,10.333H12.337V5.331C12.335,5.147 12.184,4.999 11.998,5C11.873,5.001 11.757,5.071 11.701,5.181L7.661,13.184C7.577,13.349 7.645,13.549 7.81,13.631C7.857,13.654 7.908,13.666 7.96,13.666H11.662V18.667C11.662,18.821 11.769,18.955 11.921,18.99C11.946,18.997 11.972,19 11.998,19C12.125,19 12.24,18.929 12.298,18.816L16.338,10.814C16.391,10.713 16.387,10.589 16.325,10.489Z" fill="#000000" stroke="none" stroke-width="0"></path><path d="M23.412,19.216C24.735,17.129 25.501,14.654 25.501,12C25.501,9.346 24.735,6.871 23.412,4.784C25.602,1.878 29.082,0 33.001,0C39.628,0 45.001,5.373 45.001,12C45.001,18.627 39.628,24 33.001,24C29.082,24 25.602,22.122 23.412,19.216Z" fill="#2664f1" stroke="none" stroke-width="0"></path><path d="M33.839,18.729C34.406,18.382 35.481,17.656 36.424,16.624C37.36,15.599 38.25,14.178 38.25,12.458V9.709L38.25,9.618C38.251,9.254 38.252,8.872 38.126,8.525C38.017,8.222 37.837,7.948 37.599,7.727C37.323,7.471 36.966,7.332 36.644,7.206L36.561,7.173L33.628,6.018L33.605,6.009C33.521,5.975 33.372,5.915 33.21,5.891C33.071,5.87 32.93,5.87 32.791,5.891C32.629,5.915 32.479,5.975 32.396,6.009L32.372,6.018L29.44,7.173L29.357,7.206C29.035,7.332 28.678,7.471 28.401,7.727C28.163,7.948 27.984,8.222 27.874,8.525C27.748,8.872 27.749,9.254 27.75,9.618L27.75,9.709V12.458C27.75,14.178 28.641,15.599 29.576,16.624C30.519,17.656 31.594,18.382 32.161,18.729L32.185,18.744C32.283,18.805 32.46,18.915 32.693,18.967C32.886,19.011 33.114,19.011 33.307,18.967C33.54,18.915 33.717,18.805 33.816,18.744L33.839,18.729Z" fill="#ffffff" stroke="none" stroke-width="0"></path><path d="M44.412,19.216C45.735,17.129 46.501,14.654 46.501,12C46.501,9.346 45.735,6.871 44.412,4.784C46.602,1.878 50.082,0 54.001,0C60.628,0 66.001,5.373 66.001,12C66.001,18.627 60.628,24 54.001,24C50.082,24 46.602,22.122 44.412,19.216Z" fill="#2a7f48" stroke="none" stroke-width="0"></path><path d="M50.263,10.571C49.987,10.571 49.763,10.795 49.763,11.071V14.405C49.763,14.681 49.987,14.905 50.263,14.905H51.158C51.434,14.905 51.658,14.681 51.658,14.405V11.071C51.658,10.795 51.434,10.571 51.158,10.571H50.263ZM54.053,10.571C53.777,10.571 53.553,10.795 53.553,11.071V14.405C53.553,14.681 53.777,14.905 54.053,14.905H54.947C55.223,14.905 55.447,14.681 55.447,14.405V11.071C55.447,10.795 55.223,10.571 54.947,10.571H54.053ZM48.5,17.5C48.5,17.776 48.724,18 49,18H60C60.276,18 60.5,17.776 60.5,17.5V16.643C60.5,16.367 60.276,16.143 60,16.143H49C48.724,16.143 48.5,16.367 48.5,16.643V17.5ZM57.842,10.571C57.566,10.571 57.342,10.795 57.342,11.071V14.405C57.342,14.681 57.566,14.905 57.842,14.905H58.737C59.013,14.905 59.237,14.681 59.237,14.405V11.071C59.237,10.795 59.013,10.571 58.737,10.571H57.842ZM54.729,5.118C54.585,5.044 54.415,5.044 54.271,5.118L48.771,7.956C48.604,8.041 48.5,8.213 48.5,8.4V8.833C48.5,9.109 48.724,9.333 49,9.333H60C60.276,9.333 60.5,9.109 60.5,8.833V8.4C60.5,8.213 60.396,8.041 60.229,7.956L54.729,5.118Z" fill="#ffffff" stroke="none" stroke-width="0"></path></svg>